# xmcd
#
# Track frame offsets:
#	182
#	8419
#	19685
#	44130
#	60528
#	85259
#	101783
#	111335
#	123686
#	136926
#	148247
#	158388
#	169273
#	181555
#	191109
#
# Disc length: 2671 seconds
#
# Revision: 0
# Processed by: cddbd v1.5.2PL0 Copyright (c) Steve Scherf et al.
# Submitted via: EZCDAudioConverter 1.2.5.1
#
DISCID=ca0a6d0f
DTITLE=Various Artist - MOJO 239 - Johnny Cash ...And Friends
DYEAR=2013
DGENRE=
TTITLE0=Jerry Lee Lewis - Lovin' Up A Storm
TTITLE1=Johnny Cash - Transfusion Blues
TTITLE2=Nick Cave and The Bad Seeds - Wanted Man
TTITLE3=Nick Lowe - Indian Queens
TTITLE4=Bonnie 'Prince' Billy - New Whaling
TTITLE5=Townes Van Zandt - If I Needed You
TTITLE6=George Jones - Seasons Of My Heart
TTITLE7=Merle Travis - Dark As A Dungeon
TTITLE8=Lefty Frizzell - The Long Black Veil
TTITLE9=Kitty Wells - As Long As I Live
TTITLE10=June Carter - Jukebox Blues
TTITLE11=Willie Nelson - Half A Man
TTITLE12=Hank Snow - I've Been Everywhere
TTITLE13=Charlie Rich - Lonely Weekends
TTITLE14=Waylon Jennnings - Never Again
EXTD=
EXTT0=
EXTT1=
EXTT2=
EXTT3=
EXTT4=
EXTT5=
EXTT6=
EXTT7=
EXTT8=
EXTT9=
EXTT10=
EXTT11=
EXTT12=
EXTT13=
EXTT14=
PLAYORDER=
